<svg id="Ebene_1" data-name="Ebene 1" xmlns="http://www.w3.org/2000/svg" viewBox="0 0 6927.69 1794.4"><defs><style>.cls-1{fill:#685a4e;}.cls-2{fill:#685b4f;}.cls-3{fill:#695b4f;}.cls-4{fill:#685a4f;}.cls-5{fill:#8bac37;}.cls-6{fill:#8aad37;}.cls-7{fill:#6c5e54;}.cls-8{fill:#8cae3a;}.cls-9{fill:#6b5e52;}.cls-10{fill:#6d5f54;}.cls-11{fill:#6d6054;}.cls-12{fill:#6d5f53;}.cls-13{fill:#6e6155;}.cls-14{fill:#74675c;}.cls-15{fill:#8aad38;}</style></defs><path class="cls-1" d="M976.9,1414.13q-237.18,0-474.35,0a417.36,417.36,0,0,1-120.09-17.46c-33.15-9.93-63.91-24.79-91.66-45.68-38.07-28.65-63.15-66.17-76.49-111.66a229.47,229.47,0,0,1-8.66-83.21,363.94,363.94,0,0,1,18.54-89.19,459.94,459.94,0,0,1,36.33-80.49q59.19-103.12,118.74-206Q435,683.64,490.77,586.89,560,466.92,629.16,347q50-86.67,100.09-173.28a454.74,454.74,0,0,1,62.89-84.88c22.73-24.06,48.21-44.66,77.32-60.57C894.29,14.66,920.7,5.48,948.77,1.76a209.35,209.35,0,0,1,60.7,1c32,5.12,61.33,17,88.59,34.32,26.31,16.69,49.49,37,70.25,60.23,23,25.68,42.43,53.9,59.61,83.73q63.36,109.94,126.74,219.86Q1413.34,502.61,1472,604.34q78.87,136.95,157.63,274c18.8,32.68,37.81,65.23,56.39,98,14.55,25.67,27.71,52,38.19,79.67a379.44,379.44,0,0,1,19.45,72.68c2.07,12.45,2.28,25,3.89,37.46a30,30,0,0,1,.09,4.35c-.58,30.68-5.1,60.66-16.53,89.32a203,203,0,0,1-34.93,58.14c-21.84,25.23-48.11,44.56-77.92,59.25a346.7,346.7,0,0,1-103.5,31.78,501.73,501.73,0,0,1-73.69,5.23Q1209,1414,976.9,1414.13ZM1061.79,1292v.09q173.34,0,346.7,0a326.88,326.88,0,0,0,60.56-5.41c18.16-3.39,35.6-9,51.9-17.8,12.83-6.92,24.85-15.06,34.52-26.13,23.91-27.36,33.41-59.52,30.16-95.35-1.9-20.8-7.63-40.77-16.14-60a496,496,0,0,0-24.1-46.26Q1496.8,957,1448.09,873,1367,732.28,1286,591.49q-46-79.77-92.23-159.4a204,204,0,0,0-43.1-52.4c-14.38-12.46-30.27-22.46-48.22-28.94-23.93-8.64-48.09-9.8-72.52-1.92a144.85,144.85,0,0,0-35.1,17c-16.76,11-30.68,25-43.15,40.57a326.47,326.47,0,0,0-28.16,42.17q-32.09,56-64.21,111.95Q791.28,678.66,723.12,796.7q-54.71,94.83-109.35,189.7-22.08,38.33-44,76.73A219.36,219.36,0,0,0,555,1094.61c-8.49,22.31-14.07,45.18-13.49,69.28q1.54,64.32,55.37,99.42c14.74,9.6,30.92,15.91,47.83,20.32a271.61,271.61,0,0,0,68.91,8.34Q887.72,1291.91,1061.79,1292Z"/><path class="cls-2" d="M6926,1195.79c-2.66.25-5,.65-7.41.66q-54.41.06-108.8,0a22.51,22.51,0,0,1-5.76-.47,3.41,3.41,0,0,1-2.75-3c-.18-2.89-.51-5.77-.51-8.65-.05-16,0-31.92,0-47.87,0-2.42-.16-4.83-.36-7.24,0-.3-.68-.76-1.07-.79-.85-.08-2.18-.26-2.53.2-2.33,3.06-4.48,6.26-6.64,9.46-7.61,11.28-16.26,21.63-26.75,30.37-13.18,11-27.81,19.06-44.52,23.44a400.33,400.33,0,0,1-61.31,10.83c-17.82,1.8-35.7,2.12-53.53,3.37-28,1.95-56.06,1.51-84.09,1.55-91.39.15-182.79,0-274.18.19-21.79,0-43.51-.74-65.18-2.71a291.08,291.08,0,0,1-62.5-12.2,192.26,192.26,0,0,1-62.35-33.21,129.83,129.83,0,0,1-28.58-32.5c-11.49-18.19-18.77-38.1-23.42-59a333.17,333.17,0,0,1-7.53-69c-.22-19.34-.11-38.68-.32-58a358.82,358.82,0,0,1,1.95-42c2.54-23.79,8.84-46.38,21.08-67.24a132.89,132.89,0,0,1,46.32-47c18.33-11.15,38.21-18.49,58.91-23.84,23-6,46.47-9,70.06-11.28,21.18-2.08,42.44-2.66,63.68-3.81,30-1.63,59.92-1.58,89.89-1.6,63.83,0,127.66.14,191.49-.07,28.56-.09,57,1.55,85.49,3.3a478.55,478.55,0,0,1,64.66,8.48,162.25,162.25,0,0,1,79.15,40.26,166.09,166.09,0,0,1,25,28.13,37,37,0,0,0,4.89,5.13c.17.17,1,0,1.21-.3a4.49,4.49,0,0,0,1.22-2.25q0-69.63-.24-139.26a188,188,0,0,0-4.89-43.13,125.37,125.37,0,0,0-14.51-36.18,94.19,94.19,0,0,0-27.86-29.11c-14.53-9.92-30.63-16.36-47.45-21.16a280.54,280.54,0,0,0-45.55-8.62c-34.13-3.86-68.39-5.63-102.74-6.26-60.93-1.12-121.85-.51-182.78-.36-23.69.05-47.38-.25-71.06.89-19.33.93-38.61,2.32-57.71,5.53a159.73,159.73,0,0,0-33.51,9.09,175.1,175.1,0,0,0-18.29,8.74c-20.41,11.17-31.89,28.91-37.07,51.18a129,129,0,0,0-3.34,30.21q0,7.25-.13,14.5c-.07,3.22-2.1,5-5.63,5.18-1,0-1.93.07-2.9.07l-105.9-.09c-1.93,0-3.86-.16-5.78-.29s-3.95-1.77-4-3.51c-.21-10.59-2.66-21.07-1-31.77.83-5.22.6-10.61.85-15.92a213.49,213.49,0,0,1,8.92-52.74c8.9-29.09,24.93-53.15,49.93-71A211.38,211.38,0,0,1,6127.34,471a291.74,291.74,0,0,1,65.12-19.48c17.6-3.15,35.34-5.3,53.15-7.1,24.1-2.44,48.23-2.68,72.41-3.07,72.53-1.17,145-.62,217.58-.5q42,.06,84.09,1.82c18.33.75,36.64,2.42,54.92,4.33,16.83,1.77,33.62,3.81,50.26,6.79,28.65,5.12,56.46,13,82.84,25.59a225.67,225.67,0,0,1,60.3,42.26c16.18,15.7,28.38,34.2,37.32,54.8,9.48,21.84,15.28,44.72,18.51,68.33,2.36,17.3,3.05,34.64,3.12,52.06.15,43.52.59,87,.62,130.54q.15,174.09,0,348.17c0,4.83.06,9.67-.16,14.5C6927.36,1191.92,6926.55,1193.73,6926,1195.79Zm-478.58-91.64c23.22,0,46.43,0,69.65,0,32.4-.07,64.78-.37,97.15-2.38q35.51-2.22,70.69-7c16.78-2.28,33.36-5.68,49.39-11.32,13.76-4.84,26.87-10.94,38.19-20.35,11.86-9.86,20.25-22,24-37.12a155.71,155.71,0,0,0,4.64-30c.9-19.87-.71-39.63-2.63-59.37-.75-7.79-3.54-15-7.12-21.93-6.86-13.19-16.91-23.49-29.15-31.7a126.06,126.06,0,0,0-38.11-17.33c-20.61-5.47-41.58-8.82-62.74-11.23-18.27-2.09-36.62-2.79-55-3.66-33.82-1.61-67.66-2.13-101.51-2.35-31.44-.21-62.88-.06-94.32-.12-51.26-.1-102.51-.47-153.7,3.23a458.76,458.76,0,0,0-51.79,6.32,147.1,147.1,0,0,0-34.54,10.71c-17.3,7.95-31,19.64-38.78,37.37a113.19,113.19,0,0,0-9.38,36.35,406.57,406.57,0,0,0,.11,68.11,117.91,117.91,0,0,0,8,33.74c6.55,16.35,17.29,28.83,33,37.09a152.78,152.78,0,0,0,38,14c22.72,5.07,45.81,7.29,69,8.38,14,.65,28.05.55,42.07.57Q6380,1104.22,6447.43,1104.15Z"/><path class="cls-3" d="M5681.55,1086.09c-1.24-.14-2.59-.61-2.86-.26-2,2.68-3.91,5.5-5.77,8.32-4.78,7.26-9.35,14.67-14.32,21.8-14.65,21-33.56,37.15-56,49.43a308.81,308.81,0,0,1-86.81,31.7,482.89,482.89,0,0,1-67.46,9c-15.46,1-30.89,1.56-46.37,1.56q-90.68,0-181.35-.13c-6.76,0-13.52-.47-20.28-.75q-12.32-.51-24.63-1.08a727.35,727.35,0,0,1-76.37-7.92c-20.11-3.09-40-7-59.45-12.93-37.87-11.57-72.63-29.08-102.81-55a213.3,213.3,0,0,1-46.17-55.46c-17.36-30.08-28.33-62.36-34-96.53a511.85,511.85,0,0,1-6.25-66.35c-.65-18.37-1.05-36.73-.91-55.1q.47-60.93,1.18-121.86c.42-33.45,4-66.56,11.69-99.15a277.59,277.59,0,0,1,23.86-65.18,179.75,179.75,0,0,1,28.67-39.9c29.95-31.83,66.59-52.45,108.11-64.91,29.23-8.78,59.09-14.43,89.4-18,27.4-3.25,54.88-4.61,82.42-5.73,34.33-1.41,68.65-.65,103-.78q74-.28,148,0a558.43,558.43,0,0,1,72.31,4.6,292.27,292.27,0,0,1,74.07,19.62c26.8,11.17,47.66,29.15,63.21,53.42,4.69,7.31,8.64,15.09,12.85,22.7,2,3.56,2.77,4.38,3.8,3.46,1.65-1.46,1.46-3.36,1.45-5.17-.05-13.06-.2-26.11-.27-39.17q-.32-68.19-.59-136.36-.09-24.68,0-49.33.25-80.52.57-161c0-2.41,0-4.83.08-7.25.14-4.26,1.89-6,6.23-6.1,3.38-.08,6.77-.08,10.15-.07q47.16,0,94.31,0c3.86,0,7.72.16,11.58.33a4.45,4.45,0,0,1,3.92,3.59c.15,1.43.35,2.88.37,4.32,0,4.83,0,9.67,0,14.51V1174.17c0,5.32,0,10.64-.09,16-.09,4.35-1.76,5.92-6.27,6-3.39.1-6.77.08-10.16.08h-84.15c-3.38,0-6.77,0-10.15-.07-5-.14-6.51-1.73-6.68-7.24-.09-2.9-.08-5.81-.07-8.71,0-7.25.15-14.51.14-21.76,0-19.34,0-38.69-.19-58C5682.39,1095.64,5681.85,1090.83,5681.55,1086.09Zm-358.73,17.76v.23q60.19,0,120.38,0a398.72,398.72,0,0,0,69.24-5.94,259.81,259.81,0,0,0,52.94-14.79,201.33,201.33,0,0,0,32.21-16.51c27-17.13,46.26-40.68,58.05-70.37a240,240,0,0,0,17-87.75c.37-60.43.2-120.86,0-181.29-.07-26.88-5.49-52.86-15.19-77.84-8-20.51-19.48-38.86-35.88-53.83-13.71-12.52-29.4-21.87-46.49-29-21.12-8.85-43.23-14-65.8-17a742.55,742.55,0,0,0-88.16-6.51c-71.56-.8-143.11-1-214.66.23a565.41,565.41,0,0,0-93.7,9,215.06,215.06,0,0,0-47.06,14.29q-53.92,23.6-74.82,78.63a199.92,199.92,0,0,0-11.9,50.67,558.26,558.26,0,0,0-2.9,60.81q.4,60.18,0,120.38a660.75,660.75,0,0,0,2.78,68.07c2.34,24.21,8.07,47.59,18.17,69.81a117.21,117.21,0,0,0,30.07,40.39A146.64,146.64,0,0,0,5047,1070.1a188.94,188.94,0,0,0,52,21.64,386,386,0,0,0,93.23,12C5235.79,1104.07,5279.31,1103.85,5322.82,1103.85Z"/><path class="cls-4" d="M3088.78,846.32q-195.85,0-391.7,0c-5.79,0-11.58.31-17.37.54a4.58,4.58,0,0,0-3.7,3.87c-.14,6.76-.41,13.53-.23,20.28.43,15.94.79,31.9,1.74,47.82,1.3,21.76,4.35,43.26,10.92,64.17a202.27,202.27,0,0,0,11.34,28.2c10.47,21.43,26.24,38,45.89,51.23,18.27,12.27,38.33,20.54,59.58,25.78a531,531,0,0,0,82.94,13.22c29.45,2.48,58.9,2.83,88.39,2.83,66.25,0,132.5-.11,198.75,0a567.71,567.71,0,0,0,68-3.78c18.68-2.23,37.39-5,55.26-11.44a142,142,0,0,0,29.87-14.66c20.29-13.35,32.93-32.35,39.64-55.4a180.6,180.6,0,0,0,6.45-31.2c.46-4.31,1.47-8.56,2.3-12.83.29-1.47,2.67-3.34,4.22-3.49a28,28,0,0,1,2.89-.26q55.13,0,110.25.07a11.48,11.48,0,0,1,4.2.88,4.55,4.55,0,0,1,2,2,6.13,6.13,0,0,1,.76,2.76c1.5,30.76-2.44,60.73-12.89,89.8-9.75,27.1-26.38,49.2-48.17,67.72-22,18.72-47.15,32-74.17,41.73-28.28,10.24-57.53,16.46-87.24,21-20.56,3.13-41.24,5.07-61.89,7.29-9.11,1-18.34.87-27.52,1.32s-18.34,1-27.51,1.43c-3.86.18-7.73.34-11.59.34q-131.3,0-262.58,0c-5.31,0-10.62-.46-15.92-.73-6.28-.32-12.55-.77-18.83-1-25.16-.87-50.07-3.86-74.91-7.9-15.77-2.56-31.3-6.1-46.74-10.07-34.77-9-65.55-25.47-92.73-49a231,231,0,0,1-52.46-65.1c-11.37-21-19.2-43.23-24.49-66.45a398.07,398.07,0,0,1-9.57-80.49c-.44-21.75-.55-43.51-.64-65.27-.14-32.88-.06-65.76-.23-98.63-.11-22.26.35-44.51,2-66.68,1.73-23.14,4.91-46.09,11-68.6,9.43-35.13,25.65-66.66,49.56-94.07a225.43,225.43,0,0,1,39.88-35.71c28.46-20.13,60-32.91,93.88-40.47a626.83,626.83,0,0,1,71.44-11.89c15.84-1.66,31.73-3.1,47.7-3.78,18.37-.78,36.72-.88,55.09-.89q101.55,0,203.1,0a816.51,816.51,0,0,1,91.19,4.65c39.94,4.46,79.29,12.09,117.36,25.44a237.18,237.18,0,0,1,86.87,53.71A233.78,233.78,0,0,1,3473,600.11a301.84,301.84,0,0,1,20.06,65,499.27,499.27,0,0,1,6.44,50.3c1.74,20.27,1.81,40.56,1.81,60.86,0,19.34-.09,38.68-.17,58a55.74,55.74,0,0,1-.47,8.67,3.45,3.45,0,0,1-2.89,2.87,39.18,39.18,0,0,1-4.28.56c-4.35.08-8.7,0-13.05,0h-391.7Zm-61.43-102.49h329.24c4.83,0,9.67,0,14.5-.12a5.13,5.13,0,0,0,5.34-5.48c.08-20.77,1-41.55-1.92-62.25a118.64,118.64,0,0,0-7.74-29.33c-9.21-21.95-24-39.52-42.44-54.22-18-14.36-38.2-24.47-60.1-31.26-33.44-10.37-67.87-15.1-102.68-17.1-17.37-1-34.79-1.21-52.19-1.25q-87.74-.24-175.49-.06c-38.2.08-76.35,1.36-114.27,6.58-20.69,2.84-40.75,7.78-59.87,16.42-24.67,11.16-43.56,28.36-56,52.51-2,3.86-3.83,7.81-5.55,11.8a210.67,210.67,0,0,0-12,38.69c-4.35,19.88-6.34,40.08-8.19,60.29-1.42,15.53-1.82,14.82,14.3,14.78h335Z"/><path class="cls-2" d="M4173,1207.55q-53.68,0-107.35,0c-6.76,0-13.52-.46-20.28-.74-8.21-.33-16.42-.76-24.63-1-19.82-.68-39.5-2.85-59.19-5s-39.24-5.52-58.63-9.67c-33.71-7.22-66.16-18-96.71-34.22-22.77-12.12-43.65-26.85-62-44.92a205.14,205.14,0,0,1-35.69-47.32c-15.35-27.79-24.93-57.48-30.07-88.79-4.49-27.31-5.84-54.77-5.86-82.35q0-51.51,0-103c0-5.31-.42-10.62-.61-15.92-.1-2.9-.26-5.81-.18-8.7.4-14,.7-28,1.35-42,1.49-32.47,5.84-64.54,15.51-95.63a224.09,224.09,0,0,1,51.17-88.29,245.26,245.26,0,0,1,65.61-49.53c30.22-15.81,62.34-26.17,95.55-33.25a496.89,496.89,0,0,1,60.09-9.53c8.66-.77,17.3-1.82,25.92-2.89,17.31-2.15,34.73-2.13,52.1-3.06,16-.85,31.89-.78,47.84-.8,61.41-.05,122.83-.24,184.24.07q41.31.21,82.56,3.35a677.24,677.24,0,0,1,74.73,9.56c31.87,6,63.26,13.76,93.06,27,28.09,12.46,53.78,28.62,75.92,50a228.89,228.89,0,0,1,59.25,95,303.79,303.79,0,0,1,15.37,94q.27,104.45,0,208.89a296.14,296.14,0,0,1-19.14,103.55c-9,24.16-21.37,46.6-38.31,66.2a248.64,248.64,0,0,1-69.52,56.24c-30.79,16.8-63.54,28.26-97.67,35.79-27.4,6-55.17,9.62-83.09,12.54-24.56,2.56-49.25,2.13-73.79,4.43-3.36.31-6.77.09-10.15.09Zm-.24-103.77v.36h129.14c21.77,0,43.49-.36,65.19-2.66,26.57-2.81,52.46-8.14,77.64-17.17,27.8-10,49.87-27.21,67.06-51a173.52,173.52,0,0,0,29-65.9c3.67-17.06,5.09-34.41,5.9-51.81,1.44-30.94,1.23-61.89.75-92.84-.28-18.38,0-36.76,0-55.13,0-22.74-.16-45.43-3.33-68a251.92,251.92,0,0,0-9.44-42.39c-1.77-5.52-3.88-11-6.18-16.27-12.55-29.07-33-50.73-61.06-65.48-25.57-13.41-52.82-21.28-81.11-25.94a498.29,498.29,0,0,0-80.89-6.55q-131.33-.11-262.63.16a509.91,509.91,0,0,0-59.36,3.19c-21.18,2.51-42.09,6.12-62.56,12.09a205.45,205.45,0,0,0-53.95,24.49c-19.12,12.29-34.16,28.24-44.58,48.55a192,192,0,0,0-15.91,43.46c-5.74,24.14-7.49,48.76-7.71,73.41-.45,50.3-.36,100.61,0,150.91.14,20.29,1.51,40.58,5.2,60.62s9.84,39.35,19.73,57.34c14.64,26.63,35.26,47,62.66,60.41a203.05,203.05,0,0,0,39.36,14.59,369.59,369.59,0,0,0,89,11.47C4067.33,1104,4120.05,1103.78,4172.77,1103.78Z"/><path class="cls-5" d="M0,506.62c.54-10.84,1.18-21.45,1.59-32.08a373.26,373.26,0,0,1,17.68-99.61c13.06-40.85,35-76.21,65.11-106.69,23.59-23.89,50.23-43.8,78.53-61.67,30.35-19.17,62.57-34.63,95.56-48.59,54.88-23.24,111.57-41,169.42-55q59.17-14.39,119.35-23.9,33.64-5.3,67.33-10.38c9.56-1.43,19.18-2.48,28.77-3.66,1.44-.18,2.9-.14,4.35-.19,3-.1,4.67,2,3.4,4.46-1.79,3.43-3.57,6.86-5.51,10.2q-21.06,36.4-42.18,72.79-54,93.55-108,187.16Q439.15,436.78,383,534.14,318.5,646,254.12,757.86,215,825.72,175.84,893.54c-14,24.31-27.36,49-38.36,74.8a38.18,38.18,0,0,1-2.06,3.83c-1,1.75-5,1.93-6.39.2a23.77,23.77,0,0,1-3.24-4.73c-27.52-60.79-53.24-122.31-74-185.77-15.22-46.43-28-93.52-37-141.56Q8.09,604.72,4.14,568.64C1.86,547.92,2.14,527.11,0,506.62Z"/><path class="cls-5" d="M1960.42,519.83c-1.57,22.69-1.79,44.44-4.53,66.07-1.89,14.87-3.88,29.7-6.31,44.48-4.17,25.3-9.8,50.27-16.3,75-9.19,35.08-20.24,69.6-32.4,103.75-10.71,30.05-22.12,59.84-35.06,89-11.57,26.06-23.69,51.88-35.64,77.77a49.1,49.1,0,0,1-4.43,7.4,2.55,2.55,0,0,1-2.52.21,11,11,0,0,1-2.32-3.59c-13.58-31.58-29.54-62-46.69-91.7q-56.12-97.39-112.38-194.69-44.94-77.9-89.81-155.8-47.52-82.26-95.14-164.46-50-86.67-99.89-173.44c-14.24-24.71-28.44-49.45-42.86-74.06-7.82-13.35-16.1-26.42-24.1-39.67a59.39,59.39,0,0,1-3.79-7.67,1.51,1.51,0,0,1,1.33-2.1c5.82-.87,11.55.2,17.23,1.16,25.72,4.36,51.47,8.6,77.1,13.41,37.52,7,74.8,15.14,111.69,25.1,28,7.56,55.91,15.31,83.52,24.18,57.63,18.5,113.82,40.51,167.18,69.28a552.77,552.77,0,0,1,98.12,66.79q61.82,53,83.87,131.19a335.8,335.8,0,0,1,12.21,74.21C1959.16,494.73,1959.81,507.77,1960.42,519.83Z"/><path class="cls-6" d="M617.6,1526.58h88.49c1.94,0,3.88.15,5.8,0,6.65-.61,11.88,1.67,17,6.08,19.86,16.95,40.25,33.25,61.68,48.22,27.42,19.16,56.12,36,87.26,48.49,21.62,8.65,43.79,15.24,67,17.84,5.27.58,10.52,1.48,15.8,1.93,26.93,2.3,52.93-2.64,78.56-10.31,24.66-7.38,48-17.79,70.52-30.19,27.6-15.21,53.33-33.21,78.15-52.53q15.45-12,30.4-24.68a18.8,18.8,0,0,1,13.22-4.69c8.22.14,16.44-.12,24.66-.12q83.41,0,166.83,0c3.86,0,7.73.07,11.59.27.8,0,1.59.78,2.33,1.28s.39,2.46-.87,3.82-2.63,2.83-4,4.2c-45.28,45.09-92.88,87.53-144.16,125.74-43.91,32.71-90,62-139.41,85.66a512.87,512.87,0,0,1-84,31.81,338,338,0,0,1-119.13,11.77A344,344,0,0,1,880,1778.88c-33.61-9.47-65.68-22.77-96.77-38.64-48.85-24.94-94-55.61-137.2-89.16a1095.8,1095.8,0,0,1-101.27-89c-10.27-10.23-20.29-20.71-30.43-31.07-.81-.83-1.05-1.75-.32-2.59.56-.64,1.35-1.46,2.08-1.5q6.51-.37,13-.38,44.25,0,88.49,0Z"/><path class="cls-7" d="M4033.59,1578.52c3.29,2.36,3.94,5.22,4.65,8q5.91,23.19,11.81,46.37,14.92,59,29.85,118c.82,3.25,1.87,6.44,2.73,9.4,2.32.53,2.95-.78,3.34-2,.93-2.74,1.75-5.52,2.43-8.33q17.18-70.42,34.32-140.85c2.17-8.92,4.38-17.83,6.71-26.71a5.23,5.23,0,0,1,4.17-3.58,5.91,5.91,0,0,1,1.44-.22c12.56.06,25.13.09,37.69.23,2.59,0,4.37,1.64,5.07,4.36,1.45,5.61,2.8,11.25,4.15,16.89q15.89,66.25,31.77,132.51c1.8,7.52,3.77,15,5.69,22.49.6,2.36,1.38,4.64,4,6.26,1.06-3.27,2.27-6.41,3.09-9.65q16.23-63.93,32.38-127.88,4.8-19,9.64-37.94a38.2,38.2,0,0,1,1.44-4.09,4.61,4.61,0,0,1,4.31-3.28q12.31-.21,24.64-.2a4,4,0,0,1,3.66,5c-.69,2.81-1.52,5.59-2.3,8.38q-18,64.94-36.1,129.89-8.34,30-16.67,60a23.33,23.33,0,0,1-2,5.41c-.65,1.13-2,2.54-3.13,2.61a254.87,254.87,0,0,1-42-.43,4.73,4.73,0,0,1-4.11-3.62c-1.94-8-3.63-16-5.52-24q-14.49-61.38-29.05-122.74-3-12.69-6-25.38a8.64,8.64,0,0,0-1-2.71c-.39-.6-1.45-1.45-1.78-1.29a4.21,4.21,0,0,0-1.91,2,34.18,34.18,0,0,0-1.79,5.49q-13.36,55.67-26.67,111.35-6.27,26.08-12.7,52.12a34,34,0,0,1-2.18,6.87,5.52,5.52,0,0,1-3.26,2.49,23.44,23.44,0,0,1-5.76.39q-17.41.11-34.81.12a5.47,5.47,0,0,1-4.4-3.26c-2.92-10.22-5.88-20.43-8.66-30.7q-22.76-83.93-45.43-167.89c-.38-1.39-.8-2.78-1.15-4.19-.84-3.44.8-6,4.07-6C4017,1578.36,4025.64,1578.47,4033.59,1578.52Z"/><path class="cls-8" d="M5439.53,1789.4c-7.53-.17-13-3.49-17.16-9.52a34.36,34.36,0,0,1-5.24-11.83,81.87,81.87,0,0,1-2.17-18.65c0-9.66-.12-19.32-.13-29q0-41.28,0-82.57c0-7.72.15-15.45.65-23.16.48-7.27,2.14-14.3,6-20.65a18.32,18.32,0,0,1,9.95-8c8.67-2.95,17.17-1.65,25.44,1.55a65.85,65.85,0,0,1,9,4.68q52.09,29.94,104.14,60c6.67,3.87,13.17,8.09,19.42,12.59a30.35,30.35,0,0,1,11.57,16.22,18.37,18.37,0,0,1-.14,11.36c-2.68,8.24-8.59,13.85-15.25,18.79a104.14,104.14,0,0,1-9.82,6.13q-54.49,31.59-109,63.15a61.86,61.86,0,0,1-15.95,6.75C5447.13,1788.22,5443.31,1788.71,5439.53,1789.4Z"/><path class="cls-8" d="M3745.7,1685.72c0-18.85,0-37.7,0-56.55,0-5.32.1-10.64.36-15.94a42.42,42.42,0,0,1,3.74-15.42,23.44,23.44,0,0,1,25-13.24c8.78,1.33,16.64,4.87,24.19,9.3,10.84,6.35,21.72,12.64,32.57,19,28.37,16.58,56.65,33.31,85.16,49.65A28.39,28.39,0,0,1,3930,1679c3.2,9.56-.11,21.32-8.06,27.55a143.61,143.61,0,0,1-14.48,9.61q-19.24,11.6-38.66,22.92-34.45,20-69,39.87c-5,2.87-10.32,5.25-15.58,7.67-4.48,2.06-9.28,2.51-14.18,2.33-10.41-.37-17.05-6.11-21.08-15.14a31.66,31.66,0,0,1-3-14.09c.11-2.89,0-5.8,0-8.7q0-32.62,0-65.26Z"/><path class="cls-9" d="M2745,1639.88q0,68.83,0,137.66a76.46,76.46,0,0,1-.8,10c-.09.72-1.1,1.6-1.88,1.89a12.76,12.76,0,0,1-4.19.8c-4.83.11-9.66,0-14.49.1-10.5.13-10.61-1-10.54-10.54,0-1.93.18-3.87,0-5.79a5.71,5.71,0,0,0-1.15-2.38c-.5-.76-2.61-.34-3.93.8-1.83,1.57-3.55,3.28-5.42,4.79a69.24,69.24,0,0,1-32.82,14.32c-12.9,2.15-25.82,3.54-38.88,1-3.77-.73-7.7-.63-11.52-1.2A66.42,66.42,0,0,1,2587.7,1778a55.78,55.78,0,0,1-20.87-33.66c-6.35-30.06-7-60.39-4.62-90.83a219.82,219.82,0,0,1,4.25-27.17c3.86-18.68,14.76-32.15,31.53-41,8.65-4.57,17.82-7.64,27.61-8,12.06-.41,24.14-.29,36.21-.25,7.8,0,15.31,2,22.7,4.25a60.33,60.33,0,0,1,19.22,9.89,78.63,78.63,0,0,0,7,4.89c.37.23,1.76-.58,2.17-1.23a5.47,5.47,0,0,0,.48-2.77q-.15-47.8-.32-95.62a7.74,7.74,0,0,1,3.07-7.5,2.14,2.14,0,0,1,1.37-.4c7.71,0,15.42-.12,23.12,0,2.41,0,4.12,2.18,4.2,5,.11,4.34.14,8.69.14,13Q2745,1573.22,2745,1639.88Zm-32.06,45.76a226.2,226.2,0,0,0-4.62-49.15c-2.6-12.82-10.18-21.66-21.51-27.51a55.83,55.83,0,0,0-20.81-5.86,128,128,0,0,0-44.52,4c-9.21,2.44-15.16,8.16-19,16.45a42.85,42.85,0,0,0-3.21,9.58c-1.19,6.16-2.11,12.38-2.77,18.61-.71,6.73-.79,13.52-1.47,20.25-1.86,18.45.21,36.67,3,54.84a128.74,128.74,0,0,0,3.54,15.5c1.94,6.78,6.37,11.89,12,15.87,6,4.25,12.75,7,20.21,7.2q15.94.45,31.89.4a59.67,59.67,0,0,0,18.53-3.1c11.36-3.71,19.08-11,22.31-22.75.38-1.4.62-2.84,1-4.24A183.86,183.86,0,0,0,2712.93,1685.64Z"/><path class="cls-10" d="M2952.74,1676.23c.22-13.3.84-26.8-1.13-40.27a45.63,45.63,0,0,0-6-17.7,25.82,25.82,0,0,0-17.15-12.28c-22.1-4.78-44.14-4.3-66.17.39-1.88.4-3.68,1.17-5.56,1.62-8,2-12.1,7.43-13.73,15.13-.81,3.78-1.41,7.61-2.3,11.37a21.89,21.89,0,0,1-1.92,4.06c-9.17,1-18.32.6-27.46.38-1.75,0-4-2.11-3.94-3.58a88.25,88.25,0,0,1,4.37-27.06c4.12-12.06,11.72-21,24.33-24.9,10.63-3.31,21.34-6,32.56-6.62,21.29-1.11,42.49.09,63.69,1.79a55.62,55.62,0,0,1,18.29,4.16c16.51,7.34,27.29,19.59,31.68,37.18a82.77,82.77,0,0,1,2.12,20.13c0,35.27.15,70.55.24,105.83q0,18.12,0,36.24c0,1.44-.18,2.88-.3,4.32a4.28,4.28,0,0,1-3.88,3.6c-7.72.09-15.44.15-23.16.1-2.57,0-4.13-1.91-4.26-4.78-.14-3.36-.21-6.73-.54-10.08,0-.36-1.91-1.06-2.42-.76a58.26,58.26,0,0,0-5.81,4.24c-9.36,7.35-20.05,11.37-31.79,13a216.55,216.55,0,0,1-59.2,0,81.39,81.39,0,0,1-26.18-8.05,41.15,41.15,0,0,1-20.55-23.31,91.65,91.65,0,0,1-5.55-34.13,102.34,102.34,0,0,1,5.22-29.86c4.21-12.79,12.64-21.57,24.79-26.73a70.82,70.82,0,0,1,16.59-5c16.74-2.59,33.61-3.65,50.56-2.13,4.81.43,9.62.89,14.44,1.24,12.81.91,24.69,4.35,34.83,12.63A3.66,3.66,0,0,0,2952.74,1676.23Zm-64,90c5.19-.15,12.94-.12,20.64-.69a153.82,153.82,0,0,0,17.17-2.53,26.26,26.26,0,0,0,17.54-11.85c9.25-14.06,9.78-28.93,3.32-44.21a23.6,23.6,0,0,0-3.07-4.89c-5.26-7-12.45-10.57-21-11.5-6.24-.67-12.56-.74-18.77-1.63-15.55-2.23-30.89.1-46.24,1.83-8.11.91-14.28,5.59-18.53,12.61-3,5-5.22,10.41-5.51,16.32a122.89,122.89,0,0,0,0,14.49,38.31,38.31,0,0,0,6.9,18.86c5.18,7.66,12.29,12.15,21.76,12.41C2870.76,1765.63,2878.49,1765.88,2888.77,1766.19Z"/><path class="cls-11" d="M6614.81,1692.87q-30.44,0-60.87,0a75.6,75.6,0,0,0-10.1.51,5,5,0,0,0-3,2.59,10.11,10.11,0,0,0-.54,4.26c-.05,6.76,0,13.53-.05,20.29a71.57,71.57,0,0,0,2.88,20c3.56,12.76,11.39,20.8,25,22.87a217.37,217.37,0,0,0,70.67-.32c9.92-1.73,15.17-7.86,17.39-17,1.25-5.14,1.8-10.46,2.72-15.69a4.21,4.21,0,0,1,3.93-3.58c8.68.07,17.37.22,26.05.37,1.61,0,3.42,2.3,3.43,4.08.1,13.3-2.59,25.9-9.64,37.35-6.4,10.38-15.5,17.17-27.47,19.69-20.86,4.39-41.95,7.08-63.3,5.8a194.2,194.2,0,0,1-44.17-7.51c-14.27-4.26-24.48-13-31.29-26.15a78.92,78.92,0,0,1-7.56-21.83c-1.7-9-3.05-18.09-3-27.33.13-16-.07-31.89.07-47.83.12-13.56,1.33-27,5.38-40.06a109.28,109.28,0,0,1,5.32-13.45c6.24-13.43,16.81-22.17,30.54-27.19a92.21,92.21,0,0,1,26.87-5.53,490.37,490.37,0,0,1,52.15,0,95.51,95.51,0,0,1,28.28,5.87c14.37,5.34,24.48,15,29.56,29.76a123.13,123.13,0,0,1,6,25.31c2.05,16.84,1.45,33.75.82,50.64a4.4,4.4,0,0,1-3.66,3.83c-3.37.16-6.74.35-10.11.36q-31.17,0-62.33,0Zm-16.69-28.21v0c15.94,0,31.88,0,47.82,0a62.2,62.2,0,0,0,8.62-.67,2.85,2.85,0,0,0,1.95-1.92c.48-13.06.58-26.12-3.85-38.65a37.24,37.24,0,0,0-4.8-8.88,20.83,20.83,0,0,0-13-8.48,161,161,0,0,0-50.44-2.47,102.93,102.93,0,0,0-22.62,4.84,25.3,25.3,0,0,0-14.17,11.71,31.4,31.4,0,0,0-3.88,9.31c-2,10.42-4,20.88-3.23,31.6.07,1,1.66,3,2.61,3.07,2.88.2,5.77.51,8.65.52C6567.2,1664.68,6582.66,1664.66,6598.12,1664.66Z"/><path class="cls-11" d="M3307.39,1692.78h-59.46c-3.87,0-7.73,0-11.6.13-3.61.1-5.55,1.91-5.42,5.21.37,10.14.61,20.3,1.39,30.41a81.9,81.9,0,0,0,2.85,14.18,27.89,27.89,0,0,0,6.3,11.31c3.93,4.46,8.61,7.76,14.65,8.7,6.67,1,13.32,2.51,20,3a266.72,266.72,0,0,0,47.78-1.11c2.88-.31,5.72-.92,8.59-1.37,7.52-1.19,12.19-5.94,14.35-12.78,1.58-5,1.94-10.4,2.81-15.63a50.73,50.73,0,0,1,.92-5.69c.22-.75,1.31-1.31,2.08-1.84a2.64,2.64,0,0,1,1.41-.31c8.69,0,17.38,0,26.07,0,1.74,0,3.55,2.1,3.56,3.91a78.41,78.41,0,0,1-4.79,28.41,46.82,46.82,0,0,1-15.29,20.76,53.34,53.34,0,0,1-10.06,5.61,33.86,33.86,0,0,1-6.94,2,244.56,244.56,0,0,1-51.68,6.44,193.9,193.9,0,0,1-54.34-7.7c-17.79-5-28.87-16.54-35.36-33.4-4.41-11.44-6-23.39-7.05-35.42-1.95-22.19-1.36-44.43.15-66.62a154.5,154.5,0,0,1,3.73-22.86,94.23,94.23,0,0,1,5.07-15.06c6.67-16.39,19.19-26.26,35.82-31.26,8.82-2.64,17.78-4.66,27.05-4.7,15-.07,30,0,44.94,0,8.78,0,17.3,1.87,25.64,4.37A76.14,76.14,0,0,1,3354,1587a42,42,0,0,1,18.74,19.51,99,99,0,0,1,9.56,37.72c.81,14.45.49,29,.6,43.47a4.82,4.82,0,0,1-4.43,4.8c-3.86.15-7.72.26-11.59.26q-29.72,0-59.45,0Zm-17.45-28v-.19q21.76,0,43.53,0c3.38,0,6.77,0,10.15-.18,3.63-.13,5.56-2,5.38-5.21-.36-6.27-.73-12.54-1.16-18.82a59.42,59.42,0,0,0-4.45-19.71c-3.48-8.06-9.28-13.09-18.21-14.89a160.93,160.93,0,0,0-46.18-2.44,115.8,115.8,0,0,0-25.52,5.21,25.64,25.64,0,0,0-15,12.84,29.27,29.27,0,0,0-3.16,8.08c-2,10.45-3.55,21-3.05,31.68a3.19,3.19,0,0,0,2.62,3,54.26,54.26,0,0,0,8.64.62C3259,1664.81,3274.46,1664.78,3289.94,1664.78Z"/><path class="cls-11" d="M4990.39,1692.79c-21.74,0-43.49,0-65.23,0a55.84,55.84,0,0,0-8.55.8c-.74.11-1.38,1.17-1.93,1.89a2.42,2.42,0,0,0-.3,1.4c.26,9.65.27,19.32.92,28.94a85.28,85.28,0,0,0,2.82,15.64,30.28,30.28,0,0,0,8.75,14.75,24.18,24.18,0,0,0,11.26,6.24c7.55,1.66,15.1,3.27,22.88,3.53a371.55,371.55,0,0,0,44.89-1.14c2.4-.21,4.78-.64,7.17-1,10.45-1.52,16.18-8,18.28-17.91,1.1-5.19,1.63-10.5,2.43-15.75a4.18,4.18,0,0,1,4.07-3.35c.48,0,1-.08,1.45-.07,7.73.06,15.45.09,23.18.2,2.65,0,4.29,1.91,4.36,4.66a66.89,66.89,0,0,1-6.17,30.95c-3.81,8-9.05,14.86-16.69,19.54a53.07,53.07,0,0,1-9.14,4.24,50.44,50.44,0,0,1-8.4,2.22c-17.58,3.33-35.25,5.92-53.21,5.53a191.17,191.17,0,0,1-51.31-8.27c-15.48-4.67-25.71-14.84-32.18-29.14a84.54,84.54,0,0,1-6.54-23.66c-1.56-11.49-2.86-23-2.7-34.64.15-10.15-.1-20.3.13-30.44.33-14.51,1.76-28.91,5.48-43a83.91,83.91,0,0,1,7.68-18.72,47.35,47.35,0,0,1,19.3-19.08,81,81,0,0,1,36.08-9.73c17.36-.69,34.78-.6,52.14,0,7.62.27,15.27,2.26,22.73,4.16,19,4.83,30.59,17.47,36.31,35.89,2.59,8.34,4.75,16.85,5.09,25.53.59,15,.42,29.93.5,44.9a4.51,4.51,0,0,1-4.55,4.59q-5.79.21-11.58.21-29.72,0-59.42,0Zm-17.31-28v-.16c15.95,0,31.91,0,47.87,0a63.78,63.78,0,0,0,8.62-.67c.77-.12,1.47-1.14,2.06-1.86a2.3,2.3,0,0,0,.23-1.41c-.13-11.12-.27-22.22-2.95-33.12a35.51,35.51,0,0,0-6-13.06,21.18,21.18,0,0,0-13.06-8.46,164.44,164.44,0,0,0-49.08-2.59,109.16,109.16,0,0,0-24.07,5,25.43,25.43,0,0,0-14.25,11.67,33.59,33.59,0,0,0-3.88,9.31,114.24,114.24,0,0,0-3.09,31.65,3.18,3.18,0,0,0,2.56,3,54.18,54.18,0,0,0,8.64.62C4942.13,1664.81,4957.6,1664.78,4973.08,1664.78Z"/><path class="cls-12" d="M4743.47,1577.16c9.18,0,18.36.09,27.54,0,7.82-.11,15.38,1.51,22.89,3.32a61,61,0,0,1,17.21,7.42c9.82,5.9,15.13,14.63,17.15,25.62.7,3.8,1.24,7.63,1.68,11.46.9,8-.2,9.23-8.33,9.43-3.86.09-7.73.13-11.59.09-10.65-.1-11.73,1.71-14.1-11-1.9-10.15-7.52-16.81-21.52-17.28-20.29-.68-40.57-.72-60.85.15a48.3,48.3,0,0,0-5.77.51c-9.56,1.54-15.81,7.13-18.39,16.32a46.19,46.19,0,0,0,.76,27.14,25.64,25.64,0,0,0,5.92,9.87c1.7,1.77,3.57,3.31,6.07,3.67,8.6,1.25,17.13,2.87,25.88,3,11.59.14,23.19.54,34.77,1.07a170.69,170.69,0,0,1,34.4,4.64c2.8.72,5.54,1.67,8.32,2.48,10.41,3,17.36,10.18,22.58,19.22a54.27,54.27,0,0,1,5.79,16.31c3,14.49,1.86,29-.91,43.19-3,15.31-13.06,25.53-26.94,32-6.14,2.88-12.66,5.15-19.44,5.48-16.88.83-33.67,3.38-50.61,2.9a201.81,201.81,0,0,1-44.44-5.8,99.74,99.74,0,0,1-19-7c-7.85-3.85-12.77-10.08-15.81-18-3-7.78-3.63-16-4.17-24.18a111.76,111.76,0,0,1,.24-11.57c.08-1.85,1.95-4,3.57-4q13,0,26,.09c1.64,0,3.34,2.12,3.5,4,.42,4.81.58,9.66,1.3,14.43a43,43,0,0,0,2.75,9.71,12.35,12.35,0,0,0,8.3,7.52,80.33,80.33,0,0,0,11.29,2.63c18.7,2.49,37.43,4.44,56.32,2.13,4.31-.53,8.66-.73,13-1.2,7.76-.85,13.54-5,17.66-11.36,8.05-12.53,7.5-34.4-2.45-46.51a9.37,9.37,0,0,0-6.15-3.47c-7.17-1-14.34-2.13-21.55-2.63-16.86-1.18-33.74-2.05-50.62-3a149.86,149.86,0,0,1-27.14-4.4c-17.19-4.14-27.25-15.52-32.05-32.09-1.62-5.62-1.77-11.39-2.15-17.19-.64-9.78,1-19.27,2.77-28.75a43.8,43.8,0,0,1,2.8-8.22c4.41-10.9,12.15-18.43,23.3-22.28a97.17,97.17,0,0,1,29.74-5.81c10.15-.22,20.29-.38,30.44-.56Z"/><path class="cls-10" d="M4573.42,1633.22c-1-3.74-2-7.46-3.1-11.13a47.07,47.07,0,0,0-2.61-6.71c-2.25-4.68-6.19-7.31-11.15-8.42a32.45,32.45,0,0,0-5.75-.64c-20.76-.85-41.53-1.11-62.29,0a57.3,57.3,0,0,0-9.92,1.75c-6.07,1.45-10,5.51-12.78,10.91-4.14,8.17-4.1,16.78-2.48,25.48a49.9,49.9,0,0,0,2.64,8.26c2.6,6.84,7,10.82,14.83,11.79,12,1.47,24,2.51,36.07,2.78,14,.32,28,.21,41.89,2.65,6.65,1.18,13.27,2.59,19.78,4.33,15,4,23.87,14.46,28,28.69a96.52,96.52,0,0,1,1.17,50.13,51.53,51.53,0,0,1-4.48,12.19c-5.16,9.68-12.64,17.11-23.24,20.68-5.93,2-12,4-18.15,4.89-15.77,2.2-31.58,4.33-47.62,2.83-10.09-1-20.26-1.17-30.34-2.19a137.56,137.56,0,0,1-19.95-3.45c-10-2.53-19-7-26.12-14.77a34.52,34.52,0,0,1-8.22-15.06c-2.09-8.11-1.75-16.3-1.58-24.5.2-10.14.67-10.63,10.74-10.62,6.27,0,12.53.33,18.79.61,1.71.07,3.68,2.14,3.84,3.81.18,1.92.33,3.84.4,5.76.1,2.9,0,5.81.2,8.69.79,11.25,4.24,15.47,15.08,18.1,18.44,4.49,37.2,5.64,56.1,4.59,6.74-.37,13.48-1.05,20.2-1.83,8.84-1,15.55-5.68,19.08-13.74,6.17-14.08,5.12-28.23-1.3-42a7.86,7.86,0,0,0-5.61-4.25c-6.62-1.38-13.23-3-19.93-3.66-9.6-1-19.27-1.3-28.92-1.84s-19.29-.89-28.93-1.52a125.37,125.37,0,0,1-29.73-6.08c-9.69-3.08-16.61-9.42-21.69-18.12-5.29-9.07-7.05-19.07-7.38-29.22-.38-11.6.84-23.15,4.78-34.24,4.68-13.17,13.41-22,27-26,9.32-2.73,18.67-5,28.43-5,19.32,0,38.64,0,58,.1a86.19,86.19,0,0,1,27,5,54.76,54.76,0,0,1,6.71,2.66c12,5.89,20,15,22.17,28.52.84,5.23,1.34,10.52,1.8,15.81.28,3.32-1.65,5.16-5.35,5.2q-10.86.09-21.73-.06A20.17,20.17,0,0,1,4573.42,1633.22Z"/><path class="cls-11" d="M6101.16,1685q0,47.14,0,94.28a59.34,59.34,0,0,1-.74,8.62c-.12.76-1.2,1.43-1.93,2a2.29,2.29,0,0,1-1.37.39q-13,.08-26.06.07a4.6,4.6,0,0,1-3.87-3.71c-.26-3.85-.42-7.71-.86-11.54-.06-.51-1.63-1.36-2.29-1.2a10.43,10.43,0,0,0-3.82,1.92c-19,14.6-40.86,19.35-64.18,18-9.59-.54-19.15-2.48-28.61-4.39-18.21-3.7-29.43-15.72-36.45-32.18a66.24,66.24,0,0,1-5.1-21c-.37-4.81-.6-9.65-.6-14.48q-.09-66,0-132a62.06,62.06,0,0,1,.68-8.61c.11-.74,1.1-1.5,1.86-1.94a7.34,7.34,0,0,1,2.75-.74,21.76,21.76,0,0,1,4.34-.14c7.1.66,14.47-2.15,21.32,1.64,2.06,6.62,1,13.42,1,20.13.15,36.26,0,72.52.15,108.78,0,9.18.66,18.35,1.2,27.52a33.74,33.74,0,0,0,1.53,8.53c3.63,11,10.89,18.47,22.69,19.67,17.82,1.82,35.67,2.47,53.35-1.87,12.75-3.13,21.37-10.67,26.17-22.79a67.09,67.09,0,0,0,4.51-21.18c.24-4.34.15-8.7.15-13q0-55.11-.07-110.23c0-4.35.1-8.7.17-13,0-1.63,2.09-4,3.63-4,8.69,0,17.37-.09,26.06,0,2.22,0,4.22,2.45,4.28,5q.17,6.52.16,13.06Q6101.17,1640.79,6101.16,1685Z"/><path class="cls-9" d="M5682.15,1683.62q.49-47.11,1-94.22a60.54,60.54,0,0,1,.77-8.61c.12-.75,1.12-1.55,1.9-2a6.19,6.19,0,0,1,2.79-.65c4.83,0,9.66-.07,14.48.14,14.56.64,13.39-.86,12.94,13.57a4.77,4.77,0,0,0,.53,2.77,2.56,2.56,0,0,0,2.32.82,39,39,0,0,0,4.61-3.46c11.74-9.37,25.4-13.85,40.13-14.89,16.9-1.19,33.76-.19,50.61,1.73,23.83,2.72,42.29,24.28,44.93,43.28a122.19,122.19,0,0,1,1.45,14.39c.49,24.15,1,48.3,1.09,72.46s-.29,48.31-.5,72.47a46.06,46.06,0,0,1-.53,5.73,3.08,3.08,0,0,1-3,2.66c-8.2.17-16.39.12-24.59.07-1.6,0-3.55-2.21-3.61-3.91-.12-3.86-.23-7.73-.23-11.59,0-29.47.06-58.93,0-88.4,0-15-.45-30-.55-44.93a56.82,56.82,0,0,0-2.47-15.69c-1.95-6.66-5.49-12.38-11.53-16.14a21.42,21.42,0,0,0-6.55-3c-20.08-4.32-40.2-5.28-60.3-.08-2.33.6-4.53,1.66-6.8,2.47-12.05,4.29-18.65,13.41-21.67,25.28a97,97,0,0,0-2.74,24.41c.14,32.38.07,64.76,0,97.14,0,10.14-.08,20.29-.16,30.44,0,1.55-2.15,4-3.52,4-8.69.07-17.37.12-26.06.07-2.31,0-4.22-2.35-4.34-4.91-.07-1.45-.12-2.9-.12-4.35q0-48.55,0-97.13Z"/><path class="cls-12" d="M6748.72,1683.94q0-45,0-89.89c0-3.87.08-7.73.18-11.59,0-1.54,2.17-4,3.54-4.06q12.3-.12,24.6-.1a4.37,4.37,0,0,1,3.82,3.71c0,2.89-.06,5.79,0,8.69a13.3,13.3,0,0,0,.58,4.24,2.54,2.54,0,0,0,2.28.91c2-1.29,3.86-2.87,5.75-4.36,11-8.63,23.64-13.14,37.36-14.41a209,209,0,0,1,59.17,3c15.83,3.07,26.57,13.21,33.83,27.15a55,55,0,0,1,6.18,23.66c.52,15,1.5,29.93,1.62,44.9.18,22.7-.24,45.41-.36,68.12-.06,12.08,0,24.16,0,36.25a42.24,42.24,0,0,1-.35,7.21,3.17,3.17,0,0,1-2.87,2.83c-7.71.19-15.42.39-23.14.4-4.25,0-6-1.87-6-6.32-.06-20.3,0-40.59-.05-60.89-.08-23.68-.25-47.36-.39-71a112.74,112.74,0,0,0-2.48-23,46.25,46.25,0,0,0-1.92-7c-3.14-8.23-8.95-13.69-17.54-15.84a115.14,115.14,0,0,0-14.22-2.76,120,120,0,0,0-48.76,4c-11.07,3.28-18.47,10.14-22.49,20.76a65.4,65.4,0,0,0-3.16,11.11,166.06,166.06,0,0,0-2.67,30.28q0,51.48-.14,102.94c-.07,19.63,2.32,17.82-17.78,17.88-3.38,0-6.75-.15-10.13-.3a4.32,4.32,0,0,1-3.94-3.56c-.2-4.33-.44-8.67-.44-13q-.06-45,0-89.89Z"/><path class="cls-9" d="M5124,1682.94q0-45.68,0-91.35a97.17,97.17,0,0,1,.59-10.08,2.88,2.88,0,0,1,1.68-2c9.06-1.75,18.16-1.47,27.24-.23.71.1,1.34,1.19,1.89,1.9a2.43,2.43,0,0,1,.43,1.35c.17,4.32.29,8.64.5,13,0,.22.77.6,1.13.56,5.15-.69,7.73-5.28,11.67-7.83,10.45-6.75,22-9.85,34.14-11,14.47-1.36,29-.57,43.44.41a61.29,61.29,0,0,1,27.53,8.37c9.75,5.83,17.84,13.27,21.77,24.33a43.66,43.66,0,0,1,2.24,8.35c1,7.17,2.12,14.36,2.49,21.58,1,19.29,2.48,38.56,2.1,57.91-.54,28-.77,56-1.15,84,0,1.44-.19,2.88-.33,4.32a4.4,4.4,0,0,1-4,3.51c-5.31.15-10.63.28-15.94.29-2.89,0-5.78-.22-8.67-.38-1.62-.09-3.62-2.24-3.66-3.91-.1-3.86-.22-7.72-.23-11.59q-.12-66-.17-132c0-5.85-.27-11.63-2.23-17.16-3.8-10.77-10.68-17.87-22.47-20.08-17.82-3.34-35.52-3.52-53.23.44-2.35.52-4.65,1.27-7,1.91-11.73,3.21-19,11.12-22.9,22.27a85.23,85.23,0,0,0-4.65,25.58c-.16,4.83-.16,9.66-.16,14.49q0,51.48,0,103c0,4.35-.1,8.7-.17,13,0,1.71-2,4-3.56,4q-12.3,0-24.59,0c-1.59,0-3.51-2.28-3.54-4-.06-3.39-.16-6.77-.16-10.15q0-46.39,0-92.81Z"/><path class="cls-9" d="M3470.92,1578.89c2.93,4.42,1.31,8.38,1.68,12.14a17,17,0,0,0,.61,4.25c.23.63,1.76,1.44,2.2,1.21a23.63,23.63,0,0,0,4.69-3.27c11.33-10,24.92-14.56,39.63-16.06,14.47-1.47,28.95-.68,43.38,1,2.88.33,5.73.88,8.6,1.26,23.32,3.08,37.14,16.88,43.63,38.82a50,50,0,0,1,2.32,14.25q0,75.39,0,150.78c0,1-.11,1.92-.18,2.88-.14,1.86-1.88,3.92-3.57,3.91q-12.3-.06-24.59-.28c-1.48,0-3.52-2.39-3.55-4-.09-4.35-.16-8.7-.17-13q0-64.52,0-129c0-6.82-.41-13.54-2.79-20-3.61-9.75-10.18-16-20.68-18.2a129.19,129.19,0,0,0-57.47.82,61.82,61.82,0,0,0-8.27,2.68,30.5,30.5,0,0,0-16.42,15.6,56,56,0,0,0-4.84,15.13,154.61,154.61,0,0,0-2.18,26q0,52.2-.08,104.39c0,5.31-.17,10.62-.29,15.93,0,1.76-1.94,3.86-3.63,3.87q-12.3.09-24.6,0c-1.6,0-3.58-2.24-3.62-3.92-.07-2.9-.16-5.8-.16-8.7q0-81.18,0-162.37c0-10.63.35-21.25.58-31.88a4.89,4.89,0,0,1,4.43-4.8A156.39,156.39,0,0,1,3470.92,1578.89Z"/><path class="cls-13" d="M6384.07,1790.73q-34.82,0-69.63,0a49.82,49.82,0,0,1-8.64-.63,3.24,3.24,0,0,1-2.69-3c-.12-6.75-.49-13.52-.14-20.24.29-5.41,2.74-10.2,6.2-14.43,6.42-7.87,12.77-15.79,19.14-23.69q44.59-55.34,89.16-110.68c2.11-2.62,3.92-5.47,5.84-8.23.65-.93-.41-3.38-1.48-3.42-3.37-.14-6.75-.34-10.13-.35q-40.6,0-81.23,0c-3.86,0-7.73,0-11.59-.14-3.32-.1-4.92-1.93-5.07-5.64-.07-1.93-.1-3.86-.09-5.8.12-17.54-1.81-16.49,16.32-16.48q55.85,0,111.69,0c6.76,0,13.52.26,20.28.47,1.82,0,3.88,2,3.91,3.62.15,8.21.27,16.41.31,24.62,0,3.08-1.81,5.39-3.65,7.68q-17.73,22-35.41,44.11-37.72,46.89-75.44,93.79a67.38,67.38,0,0,0-5.53,8.41c-.26.43.59,2.17,1.17,2.31a32.15,32.15,0,0,0,7.09,1c13.06.15,26.11.2,39.17.22,20.3,0,40.61,0,60.92,0a53,53,0,0,1,8.64.6,3.34,3.34,0,0,1,2.72,3c.66,6.74,1,13.48-.27,20.18a3,3,0,0,1-1.87,2,38.46,38.46,0,0,1-7.18.68Q6420.34,1790.78,6384.07,1790.73Z"/><path class="cls-12" d="M6162.72,1680.18q0-31.15,0-62.32a44.39,44.39,0,0,0-.64-8.63,4.26,4.26,0,0,0-3-2.63c-4.3-.46-8.65-.43-13-.63a57.47,57.47,0,0,1-8.62-.66,4.11,4.11,0,0,1-2.62-2.89c-.19-6.74-.1-13.49.05-20.23,0-2.36,2.37-4.35,4.89-4.39,3.86,0,7.73,0,11.59,0,2.41,0,4.82-.11,7.22-.24,1.64-.09,3.74-2.14,3.79-3.75q.21-7.24.3-14.48c.12-9.18.19-18.35.33-27.52,0-1.89,1.85-3.89,3.55-3.87,8.67.11,17.34.26,26,.55.7,0,1.76,1.14,2,1.93a22.83,22.83,0,0,1,.77,5.7c.05,11.11,0,22.22,0,33.33a22.39,22.39,0,0,0,.8,5.64,3.18,3.18,0,0,0,1.91,1.92,21.82,21.82,0,0,0,5.66.88c11.6.06,23.19,0,34.79,0,11.11,0,22.22,0,33.33,0,3.36,0,5.23,2,5.25,5.48,0,6.27-.09,12.55-.19,18.82a4.21,4.21,0,0,1-3.86,3.59c-3.38.06-6.76.13-10.14.13q-25.37,0-50.72,0-5.81,0-11.59.16a5,5,0,0,0-4.89,4.34c-.11,1.44-.28,2.88-.28,4.33,0,37.68-.09,75.36,0,113,0,7.23.55,14.48,1.15,21.69.74,8.75,5.82,14.74,15.78,16.07a75.09,75.09,0,0,0,25.92-1.34,15.51,15.51,0,0,0,10.18-7.56,29.39,29.39,0,0,0,4.43-13.64c.26-4.34.38-8.69.6-13,.17-3.37.33-6.75.63-10.11a5.41,5.41,0,0,1,4.7-4.73c1-.08,1.92-.22,2.88-.22,5.31,0,10.63-.07,15.94,0,6.38.12,7.56,1.29,7.44,7.73-.19,10.62,0,21.28-2.89,31.66-.65,2.32-1.13,4.69-1.91,7-4.82,14.21-14,23.93-28.67,28.26a100.73,100.73,0,0,1-27,4.52c-11.67.18-23.07-2-34.41-4.36-10.22-2.14-17.11-8.54-21.54-17.75a52.78,52.78,0,0,1-5.55-20.86q-.3-7.23-.32-14.48Q6162.7,1708.45,6162.72,1680.18Z"/><path class="cls-7" d="M3045.79,1678.75q0-30.45,0-60.9a60.87,60.87,0,0,0-.5-8.65,3.2,3.2,0,0,0-2.84-2.84c-4.32-.28-8.66-.39-13-.58a71,71,0,0,1-8.65-.5c-1.15-.2-2.86-1.54-3-2.54a72,72,0,0,1,0-21.59,3.25,3.25,0,0,1,1.81-2,12,12,0,0,1,4.17-.89c3.86-.08,7.73,0,11.6.08,8.75.09,10.39-1,10.34-9.63,0-9.18.1-18.36.09-27.54,0-13.75-.14-13.7,13.5-13.58,4.82.05,9.65.2,14.47.38a4.41,4.41,0,0,1,3.78,3.72c.18,3.86.36,7.71.39,11.57.08,9.67,0,19.33.14,29,0,3.56,1.87,5.59,5,5.7,3.86.14,7.73.18,11.6.18,16.91,0,33.83,0,50.75,0,3.37,0,6.75.21,10.12.37a4.58,4.58,0,0,1,3.71,3.84q0,9.42,0,18.84a2.16,2.16,0,0,1-.35,1.38c-.93,1-1.89,2.48-3,2.64a75.59,75.59,0,0,1-10.1.5c-18.85,0-37.7,0-56.55,0a64.16,64.16,0,0,0-8.65.62,3.24,3.24,0,0,0-2,1.92,13.28,13.28,0,0,0-.59,4.27c0,39.15,0,78.3.21,117.45a169,169,0,0,0,1.77,21.65,15.59,15.59,0,0,0,13.18,13.64,76.4,76.4,0,0,0,30.23-1,14.43,14.43,0,0,0,8.94-7,27.39,27.39,0,0,0,3.89-10.83,96,96,0,0,0,.57-18.8,62.39,62.39,0,0,1,.28-8.63c.12-1.65,2.23-3.45,4-3.66a13.57,13.57,0,0,1,1.42-.24c6.28,0,12.56-.12,18.84,0,4.34.07,6,1.8,6,6.28.16,11.11.76,22.25-2,33.18a85.64,85.64,0,0,1-2.93,9.68c-3.81,9.88-10.25,17.28-20.13,21.69-15.38,6.87-31.3,9.83-48,7.26-7.15-1.1-14.25-2.63-21.28-4.33-10.66-2.57-17.65-9.46-21.8-19.48a60.91,60.91,0,0,1-4.52-18.21c-.49-5.77-.77-11.58-.8-17.37-.1-18.36,0-36.73,0-55.1Z"/><path class="cls-7" d="M4373.34,1683.93q-.19,49.21-.4,98.45c0,1,0,1.93-.1,2.89-.19,3.55-2.09,5.54-5.29,5.49a34.85,34.85,0,0,1-4.33-.28c-7-1.06-14.47,1.91-21.21-2.11-2.17-7.08-1-14.35-1-21.51q-.17-84.7-.05-169.4c0-4.34,0-8.69.1-13,.08-3.72,1.68-5.72,5-5.75,7.71-.09,15.42,0,23.13.07,1.6,0,3.68,2.22,3.72,3.84.07,2.89.17,5.79.17,8.68q.06,28.24.08,56.47,0,18.09,0,36.19Z"/><path class="cls-14" d="M4371.68,1523.1a8.21,8.21,0,0,1-2.63,1q-11.49,0-23-.22c-2.6-.06-4.89-2.06-4.91-4.3-.06-9.09,0-18.17,0-27.26a4.27,4.27,0,0,1,3.7-3.8q12.18-.24,24.37-.26a4.18,4.18,0,0,1,3.88,3.57c.36,10,.93,20-.82,30A4.93,4.93,0,0,1,4371.68,1523.1Z"/><path class="cls-15" d="M1119.61,1255.86c-37.76,0-67.74-.09-97.72,0-44.47.17-88.95.63-133.43.62a380.8,380.8,0,0,1-40.53-1.92c-24.79-2.65-48.28-9.77-69.51-23.26-31.6-20.07-48.48-49-51.5-86.16-1.91-23.62,3-46.15,11.12-68.12a270.25,270.25,0,0,1,19.43-40.48q27.43-47.79,55.06-95.47,52.88-91.71,105.73-183.41,35.5-61.56,71.11-123a201.59,201.59,0,0,1,43.19-52.33c13.72-11.76,28.89-21,46.2-26.56a81.33,81.33,0,0,1,19.87-3.88c13.55-.8,27-.88,40.33,2.5a108.37,108.37,0,0,1,33,14.47,180.43,180.43,0,0,1,40.79,36.75,275.79,275.79,0,0,1,25.35,37.06Q1313.44,773.31,1388.77,904q38.38,66.59,76.73,133.19c9.93,17.23,18.25,35.13,23.89,54.27,5.24,17.81,7.75,35.94,6.41,54.43-2.37,32.6-16.18,59.39-42.33,79.29-18.4,14-39.47,22.1-62,26.84-17.64,3.72-35.53,4.24-53.37,4.49-32.88.46-65.77.72-98.63,0C1196.91,1255.5,1154.37,1256.33,1119.61,1255.86ZM894.84,1129.48a59.78,59.78,0,0,0,2,17.89c4.51,15.72,14.33,27.17,28.3,35.23A87.89,87.89,0,0,0,958,1193.43a273.71,273.71,0,0,0,36.11,2.63q159.56-.16,319.09,0a325.13,325.13,0,0,0,36.14-2.31c12.56-1.4,24.72-4.67,35.75-11.14,14.87-8.72,25-21.2,28.87-38.19,2.19-9.55,1.91-19.21.14-28.81-2.58-14-8.34-26.65-15.4-38.88-22.69-39.35-45.21-78.8-67.89-118.17q-37.29-64.69-74.73-129.3c-12.34-21.33-24.81-42.59-37-64a98.23,98.23,0,0,0-20.21-24.49c-9.9-8.86-21.19-15.21-34.47-17.43-18.39-3.08-34.45,2.44-48.67,13.82a104.34,104.34,0,0,0-23.26,25.69c-3.1,4.9-6,9.92-8.91,14.94q-27.54,47.72-55,95.46Q979.57,958,930.71,1042.84c-7.24,12.56-14.49,25.12-21.6,37.76C900.7,1095.53,894.92,1111.28,894.84,1129.48Z"/></svg>